<mxfile host="app.diagrams.net" agent="Mozilla/5.0 (Windows NT 10.0; Win64; x64; rv:132.0) Gecko/20100101 Firefox/132.0" version="24.9.3">
  <diagram name="Page-1" id="3QTX_9LpbflqGAp3st7x">
    <mxGraphModel dx="727" dy="388" grid="1" gridSize="10" guides="1" tooltips="1" connect="1" arrows="1" fold="1" page="1" pageScale="1" pageWidth="10" pageHeight="10" math="0" shadow="0">
      <root>
        <mxCell id="0" />
        <mxCell id="1" parent="0" />
        <mxCell id="DGjk3PeGYtZa6itGFuPi-3" value="" style="edgeStyle=orthogonalEdgeStyle;rounded=0;orthogonalLoop=1;jettySize=auto;html=1;" edge="1" parent="1" source="DGjk3PeGYtZa6itGFuPi-1" target="DGjk3PeGYtZa6itGFuPi-2">
          <mxGeometry relative="1" as="geometry" />
        </mxCell>
        <mxCell id="DGjk3PeGYtZa6itGFuPi-1" value="ID 9 Start" style="ellipse;whiteSpace=wrap;html=1;aspect=fixed;" vertex="1" parent="1">
          <mxGeometry x="5.5" y="335" width="80" height="80" as="geometry" />
        </mxCell>
        <mxCell id="DGjk3PeGYtZa6itGFuPi-6" value="" style="edgeStyle=orthogonalEdgeStyle;rounded=0;orthogonalLoop=1;jettySize=auto;html=1;" edge="1" parent="1" source="DGjk3PeGYtZa6itGFuPi-2" target="DGjk3PeGYtZa6itGFuPi-5">
          <mxGeometry relative="1" as="geometry" />
        </mxCell>
        <mxCell id="DGjk3PeGYtZa6itGFuPi-2" value="&lt;div&gt;Brugerinput gennem&lt;/div&gt;&lt;div&gt;ThingsBoard&lt;br&gt;&lt;/div&gt;" style="shape=parallelogram;perimeter=parallelogramPerimeter;whiteSpace=wrap;html=1;fixedSize=1;" vertex="1" parent="1">
          <mxGeometry x="-37" y="450" width="165" height="70" as="geometry" />
        </mxCell>
        <mxCell id="DGjk3PeGYtZa6itGFuPi-9" style="edgeStyle=orthogonalEdgeStyle;rounded=0;orthogonalLoop=1;jettySize=auto;html=1;exitX=1;exitY=0.5;exitDx=0;exitDy=0;" edge="1" parent="1" source="DGjk3PeGYtZa6itGFuPi-5" target="DGjk3PeGYtZa6itGFuPi-7">
          <mxGeometry relative="1" as="geometry" />
        </mxCell>
        <mxCell id="DGjk3PeGYtZa6itGFuPi-10" value="Aktiver" style="edgeLabel;html=1;align=center;verticalAlign=middle;resizable=0;points=[];" vertex="1" connectable="0" parent="DGjk3PeGYtZa6itGFuPi-9">
          <mxGeometry x="-0.3545" y="-2" relative="1" as="geometry">
            <mxPoint as="offset" />
          </mxGeometry>
        </mxCell>
        <mxCell id="DGjk3PeGYtZa6itGFuPi-11" style="edgeStyle=orthogonalEdgeStyle;rounded=0;orthogonalLoop=1;jettySize=auto;html=1;exitX=0;exitY=0.5;exitDx=0;exitDy=0;entryX=0.5;entryY=0;entryDx=0;entryDy=0;" edge="1" parent="1" source="DGjk3PeGYtZa6itGFuPi-5" target="DGjk3PeGYtZa6itGFuPi-8">
          <mxGeometry relative="1" as="geometry" />
        </mxCell>
        <mxCell id="DGjk3PeGYtZa6itGFuPi-12" value="Deaktiver" style="edgeLabel;html=1;align=center;verticalAlign=middle;resizable=0;points=[];" vertex="1" connectable="0" parent="DGjk3PeGYtZa6itGFuPi-11">
          <mxGeometry x="-0.3333" y="-3" relative="1" as="geometry">
            <mxPoint as="offset" />
          </mxGeometry>
        </mxCell>
        <mxCell id="DGjk3PeGYtZa6itGFuPi-5" value="Input:&lt;br&gt;&lt;div&gt;Aktiver eller deaktiver alarmsystem?&lt;br&gt;&lt;/div&gt;" style="rhombus;whiteSpace=wrap;html=1;" vertex="1" parent="1">
          <mxGeometry x="-22" y="555" width="135" height="125" as="geometry" />
        </mxCell>
        <mxCell id="DGjk3PeGYtZa6itGFuPi-7" value="Aktiver alarmsystem" style="rounded=0;whiteSpace=wrap;html=1;" vertex="1" parent="1">
          <mxGeometry x="113" y="715" width="120" height="60" as="geometry" />
        </mxCell>
        <mxCell id="DGjk3PeGYtZa6itGFuPi-8" value="Deaktiver alarmsystem" style="rounded=0;whiteSpace=wrap;html=1;" vertex="1" parent="1">
          <mxGeometry x="-142" y="715" width="120" height="60" as="geometry" />
        </mxCell>
        <mxCell id="DGjk3PeGYtZa6itGFuPi-15" style="edgeStyle=orthogonalEdgeStyle;rounded=0;orthogonalLoop=1;jettySize=auto;html=1;exitX=0.5;exitY=0;exitDx=0;exitDy=0;exitPerimeter=0;entryX=0;entryY=0.5;entryDx=0;entryDy=0;" edge="1" parent="1" source="DGjk3PeGYtZa6itGFuPi-13" target="DGjk3PeGYtZa6itGFuPi-2">
          <mxGeometry relative="1" as="geometry">
            <Array as="points">
              <mxPoint x="-165" y="485" />
            </Array>
          </mxGeometry>
        </mxCell>
        <mxCell id="DGjk3PeGYtZa6itGFuPi-13" value="&lt;div&gt;Vent på ny besked fra ThingsBoard&lt;br&gt;&lt;/div&gt;" style="strokeWidth=2;html=1;shape=mxgraph.flowchart.delay;whiteSpace=wrap;" vertex="1" parent="1">
          <mxGeometry x="-232" y="525" width="134.5" height="70" as="geometry" />
        </mxCell>
        <mxCell id="DGjk3PeGYtZa6itGFuPi-14" style="edgeStyle=orthogonalEdgeStyle;rounded=0;orthogonalLoop=1;jettySize=auto;html=1;exitX=0;exitY=0.5;exitDx=0;exitDy=0;entryX=0.452;entryY=1.005;entryDx=0;entryDy=0;entryPerimeter=0;" edge="1" parent="1" source="DGjk3PeGYtZa6itGFuPi-8" target="DGjk3PeGYtZa6itGFuPi-13">
          <mxGeometry relative="1" as="geometry" />
        </mxCell>
        <mxCell id="DGjk3PeGYtZa6itGFuPi-18" style="edgeStyle=orthogonalEdgeStyle;rounded=0;orthogonalLoop=1;jettySize=auto;html=1;exitX=0.5;exitY=0;exitDx=0;exitDy=0;exitPerimeter=0;entryX=1;entryY=0.5;entryDx=0;entryDy=0;" edge="1" parent="1" source="DGjk3PeGYtZa6itGFuPi-16" target="DGjk3PeGYtZa6itGFuPi-2">
          <mxGeometry relative="1" as="geometry">
            <Array as="points">
              <mxPoint x="255" y="485" />
            </Array>
          </mxGeometry>
        </mxCell>
        <mxCell id="DGjk3PeGYtZa6itGFuPi-16" value="&lt;div&gt;Vent på ny besked fra ThingsBoard&lt;br&gt;&lt;/div&gt;" style="strokeWidth=2;html=1;shape=mxgraph.flowchart.delay;whiteSpace=wrap;" vertex="1" parent="1">
          <mxGeometry x="187.75" y="525" width="134.5" height="70" as="geometry" />
        </mxCell>
        <mxCell id="DGjk3PeGYtZa6itGFuPi-17" style="edgeStyle=orthogonalEdgeStyle;rounded=0;orthogonalLoop=1;jettySize=auto;html=1;exitX=1;exitY=0.5;exitDx=0;exitDy=0;entryX=0.5;entryY=1;entryDx=0;entryDy=0;entryPerimeter=0;" edge="1" parent="1" source="DGjk3PeGYtZa6itGFuPi-7" target="DGjk3PeGYtZa6itGFuPi-16">
          <mxGeometry relative="1" as="geometry" />
        </mxCell>
      </root>
    </mxGraphModel>
  </diagram>
</mxfile>
